<?xml version="1.0" standalone="no"?>
<!DOCTYPE svg PUBLIC "-//W3C//DTD SVG 20010904//EN"
 "http://www.w3.org/TR/2001/REC-SVG-20010904/DTD/svg10.dtd">
<svg version="1.0" xmlns="http://www.w3.org/2000/svg"
 width="1567.000000pt" height="1567.000000pt" viewBox="0 0 1567.000000 1567.000000"
 preserveAspectRatio="xMidYMid meet">
<metadata>
Created by potrace 1.14, written by Peter Selinger 2001-2017
</metadata>
<g transform="translate(0.000000,1567.000000) scale(0.100000,-0.100000)"
fill="#000000" stroke="none">
<path d="M0 7835 l0 -7835 7835 0 7835 0 0 7835 0 7835 -7835 0 -7835 0 0
-7835z m11500 3684 c21 -12 47 -38 59 -59 l21 -38 0 -1138 0 -1139 -24 -50
c-24 -53 -78 -107 -130 -131 -41 -18 -6111 -1524 -6145 -1524 -45 0 -113 42
-146 88 l-30 44 0 1126 c0 872 3 1136 12 1168 28 92 98 154 219 194 125 42
6028 1479 6078 1479 32 1 61 -6 86 -20z m-1070 -3311 c56 -29 87 -74 95 -141
3 -29 5 -542 3 -1142 -3 -1020 -4 -1093 -21 -1129 -27 -60 -63 -103 -110 -130
-30 -18 -877 -232 -3091 -781 -2542 -631 -3057 -756 -3098 -753 -57 6 -110 43
-139 98 -18 33 -19 83 -19 1156 0 1231 -2 1187 60 1258 34 38 121 87 200 111
95 29 6024 1474 6050 1474 14 1 46 -9 70 -21z"/>
<path d="M8515 9759 c-918 -236 -1690 -440 -1715 -453 -68 -34 -104 -91 -108
-174 -5 -85 23 -143 90 -188 90 -61 -41 -89 1827 392 933 240 1712 444 1731
454 72 37 110 102 110 188 0 75 -29 132 -88 175 -89 64 20 87 -1847 -394z"/>
<path d="M7220 6386 c-921 -238 -1689 -440 -1707 -449 -43 -23 -89 -81 -103
-133 -35 -123 52 -253 181 -270 37 -5 325 67 1734 429 930 240 1702 440 1716
445 71 27 129 116 129 197 0 123 -95 216 -217 214 -42 -1 -528 -122 -1733
-433z"/>
</g>
</svg>
