<?xml version="1.0" encoding="UTF-8"?>
<svg id="Layer_2" data-name="Layer 2" xmlns="http://www.w3.org/2000/svg" viewBox="0 0 423.14 116.84">
  <defs>
    <style>
      .cls-1 {
        fill: #fff;
      }

      .cls-1, .cls-2 {
        stroke-width: 0px;
      }

      .cls-2 {
        fill: #08ffdb;
      }
    </style>
  </defs>
  <g id="Layer_1-2" data-name="Layer 1">
    <g>
      <path class="cls-2" d="M92.27,0H24.7C11.06,0,0,11.06,0,24.7v67.44c0,13.64,11.06,24.7,24.7,24.7h67.57c13.64,0,24.7-11.06,24.7-24.7V24.7c0-13.64-11.06-24.7-24.7-24.7ZM53.47,61.9c.03,2.13-.82,4.21-2.31,5.7l-10.34,10.35c-1.47,1.47-3.37,2.25-5.33,2.25-.99,0-1.99-.2-2.96-.6-2.9-1.2-4.7-3.9-4.7-7.04v-28.11c0-3.14,1.8-5.84,4.71-7.04,2.9-1.2,6.08-.56,8.29,1.66l10.33,10.33c1.49,1.49,2.34,3.57,2.31,5.7-.01,1.12-.02,2.25-.02,3.4s0,2.28.02,3.4ZM89.19,72.56c0,3.14-1.8,5.84-4.7,7.04-.97.4-1.98.6-2.96.6-1.96,0-3.86-.77-5.33-2.25l-10.34-10.35c-1.49-1.49-2.33-3.57-2.31-5.7.01-1.12.02-2.25.02-3.4s0-2.28-.02-3.4c-.03-2.13.82-4.21,2.31-5.7l10.33-10.33c2.21-2.22,5.39-2.86,8.29-1.66,2.91,1.2,4.71,3.9,4.71,7.04v28.11Z"/>
      <g>
        <path class="cls-1" d="M183.95,52.21h-14.51v28.08c0,2.42.54,4.15,1.64,5.21,1.09,1.05,2.71,1.64,4.86,1.75,2.14.12,4.81.1,8.01-.06v11.35c-9.67,1.17-16.61.33-20.83-2.52-4.21-2.85-6.32-8.09-6.32-15.74v-28.08h-10.76v-12.17h10.76v-22.89h12.64v22.89h14.51v12.17Z"/>
        <path class="cls-1" d="M388.67,52.21h-14.51v28.08c0,2.42.54,4.15,1.64,5.21,1.09,1.05,2.71,1.64,4.86,1.75,2.14.12,4.81.1,8.01-.06v11.35c-9.67,1.17-16.61.33-20.83-2.52-4.21-2.85-6.32-8.09-6.32-15.74v-28.08h-10.76v-12.17h10.76v-22.89h12.64v22.89h14.51v12.17Z"/>
        <path class="cls-1" d="M423.14,52.21h-14.51v28.08c0,2.42.54,4.15,1.64,5.21,1.09,1.05,2.71,1.64,4.86,1.75,2.14.12,4.81.1,8.01-.06v11.35c-9.67,1.17-16.61.33-20.83-2.52-4.21-2.85-6.32-8.09-6.32-15.74v-28.08h-10.76v-12.17h10.76v-22.89h12.64v22.89h14.51v12.17Z"/>
        <path class="cls-1" d="M203.34,50.38c3.2-7.25,9.2-10.88,18.02-10.88v13.69c-4.84-.31-9.05.84-12.64,3.45-3.59,2.61-5.38,6.92-5.38,12.93v29.48h-12.64v-58.5h12.64v9.83Z"/>
        <path class="cls-1" d="M253.82,99.67c-8.58,0-15.87-2.96-21.88-8.89-6.01-5.93-9.01-13.22-9.01-21.88s3-15.95,9.01-21.88c6.01-5.93,13.3-8.89,21.88-8.89s15.97,2.97,21.94,8.89c5.97,5.93,8.95,13.22,8.95,21.88s-2.98,15.95-8.95,21.88c-5.97,5.93-13.28,8.89-21.94,8.89ZM240.83,82.12c3.51,3.51,7.84,5.26,12.99,5.26s9.48-1.75,12.99-5.26c3.51-3.51,5.26-7.92,5.26-13.22s-1.75-9.71-5.26-13.22c-3.51-3.51-7.84-5.26-12.99-5.26s-9.48,1.75-12.99,5.26c-3.51,3.51-5.26,7.92-5.26,13.22s1.75,9.71,5.26,13.22Z"/>
        <path class="cls-1" d="M319.88,99.67c-8.58,0-15.87-2.96-21.88-8.89-6.01-5.93-9.01-13.22-9.01-21.88s3-15.95,9.01-21.88c6.01-5.93,13.3-8.89,21.88-8.89s15.97,2.97,21.94,8.89c5.97,5.93,8.95,13.22,8.95,21.88s-2.98,15.95-8.95,21.88c-5.97,5.93-13.28,8.89-21.94,8.89ZM306.89,82.12c3.51,3.51,7.84,5.26,12.99,5.26s9.48-1.75,12.99-5.26,5.27-7.92,5.27-13.22-1.76-9.71-5.27-13.22c-3.51-3.51-7.84-5.26-12.99-5.26s-9.48,1.75-12.99,5.26c-3.51,3.51-5.26,7.92-5.26,13.22s1.75,9.71,5.26,13.22Z"/>
      </g>
    </g>
  </g>
</svg>