<?xml version="1.0" encoding="UTF-8"?>
<svg id="Layer_2" data-name="Layer 2" xmlns="http://www.w3.org/2000/svg" viewBox="0 0 116.97 116.84">
  <defs>
    <style>
      .cls-1 {
        fill: #08ffdb;
        stroke-width: 0px;
      }
    </style>
  </defs>
  <g id="Layer_1-2" data-name="Layer 1">
    <path class="cls-1" d="M92.27,0H24.7C11.06,0,0,11.06,0,24.7v67.44c0,13.64,11.06,24.7,24.7,24.7h67.57c13.64,0,24.7-11.06,24.7-24.7V24.7c0-13.64-11.06-24.7-24.7-24.7ZM53.47,61.9c.03,2.13-.82,4.21-2.31,5.7l-10.34,10.35c-1.47,1.47-3.37,2.25-5.33,2.25-.99,0-1.99-.2-2.96-.6-2.9-1.2-4.7-3.9-4.7-7.04v-28.11c0-3.14,1.8-5.84,4.71-7.04,2.9-1.2,6.08-.56,8.29,1.66l10.33,10.33c1.49,1.49,2.34,3.57,2.31,5.7-.01,1.12-.02,2.25-.02,3.4s0,2.28.02,3.4ZM89.19,72.56c0,3.14-1.8,5.84-4.7,7.04-.97.4-1.98.6-2.96.6-1.96,0-3.86-.77-5.33-2.25l-10.34-10.35c-1.49-1.49-2.33-3.57-2.31-5.7.01-1.12.02-2.25.02-3.4s0-2.28-.02-3.4c-.03-2.13.82-4.21,2.31-5.7l10.33-10.33c2.21-2.22,5.39-2.86,8.29-1.66,2.91,1.2,4.71,3.9,4.71,7.04v28.11Z"/>
  </g>
</svg>